<svg width="6770" height="3296" viewBox="0 0 6770 3296" fill="none" xmlns="http://www.w3.org/2000/svg">
<path d="M1 568.33C951.296 951.656 1463.54 1457.22 1758.97 1870.8C2005.24 2215.61 2000.87 2356.66 2262.37 2613.91C2829.85 3172.14 3916.93 3557.1 4443.79 3077.37C4703.32 2841.06 4607.32 2541.59 4731.46 1974.67C4843.14 1464.69 5131.88 763.282 5938.03 1" stroke="#3056D3" stroke-miterlimit="10"/>
<path d="M2.90039 692.004C927.221 1021.44 1434.34 1497.05 1729.61 1884.11C1978.06 2209.89 1998.26 2340.16 2276.02 2592.99C2858.71 3123.38 3879.61 3492.64 4407.21 3045.02C4678.97 2814.48 4617.15 2520.14 4762.6 1954.88C4890.66 1457.23 5185.3 767.823 5977.55 12.377" stroke="#3056D3" stroke-miterlimit="10"/>
<path d="M4.80176 815.662C903.13 1091.23 1405.52 1537.01 1700.31 1897.43C1951.45 2204.47 1995.21 2323.67 2289.73 2572.07C2886.32 3075.23 3843.92 3429.03 4370.71 3012.69C4655.29 2787.75 4626.59 2498.97 4793.82 1935.11C4937.75 1449.92 5238.8 772.415 6017.2 23.8398" stroke="#3056D3" stroke-miterlimit="10"/>
<path d="M6.70215 939.337C879.037 1161.04 1377.2 1577.09 1671.01 1910.84C1925.16 2199.38 1991.66 2307.31 2303.5 2551.13C2912.83 3027.77 3809.77 3366.39 4334.25 2980.34C4632.24 2761.03 4635.6 2478.05 4825.09 1915.32C4984.21 1442.7 5292.34 777.008 6056.78 35.252" stroke="#3056D3" stroke-miterlimit="10"/>
<path d="M8.61035 1062.99C855.039 1230.79 1349.46 1617.16 1641.72 1924.07C1899.33 2194.57 1987.83 2291.1 2317.11 2530.21C2938.11 2981.01 3776.86 3304.78 4297.64 2947.99C4609.65 2734.24 4643.97 2457.27 4856.21 1895.53C5030.02 1435.52 5345.75 781.581 6096.26 46.748" stroke="#3056D3" stroke-miterlimit="10"/>
<path d="M10.5107 1186.65C830.878 1300.58 1322.35 1657.26 1612.42 1937.38C1874.04 2190.05 1983.37 2275.13 2330.82 2509.27C2962.54 2935.02 3745.3 3244.21 4261.11 2915.66C4587.7 2707.62 4651.77 2436.59 4887.41 1875.74C5075.32 1428.33 5399.23 786.174 6135.84 58.0742" stroke="#3056D3" stroke-miterlimit="10"/>
<path d="M12.4121 1310.31C806.787 1370.28 1296 1697.18 1583.12 1950.7C1849.33 2185.76 1978.63 2259.44 2344.51 2488.35C2986.19 2889.79 3714.87 3184.74 4224.58 2883.31C4566.28 2681.23 4659.2 2415.91 4918.61 1855.96C5120.09 1421.06 5452.77 790.765 6175.4 69.502" stroke="#3056D3" stroke-miterlimit="10"/>
<path d="M14.3789 1433.98C782.761 1440.13 1270.54 1736.92 1553.88 1964.01C1825.38 2181.62 1973.67 2244.09 2358.27 2467.43C3009.19 2845.33 3685.53 3126.34 4188.11 2850.96C4545.46 2655.17 4666.03 2395.19 4949.88 1836.17C5164.31 1413.71 5506.17 795.409 6214.98 80.9141" stroke="#3056D3" stroke-miterlimit="10"/>
<path d="M16.2129 1557.64C758.603 1509.92 1245.83 1776.27 1524.52 1977.34C1802.09 2177.54 1968.16 2229.21 2371.91 2446.49C3031.57 2801.61 3656.97 3069.04 4151.51 2818.63C4525.04 2629.54 4672.17 2374.31 4981.01 1816.38C5208.07 1406.21 5559.65 799.932 6254.65 92.3242" stroke="#3056D3" stroke-miterlimit="10"/>
<path d="M18.1143 1681.25C734.528 1579.66 1222.1 1815.06 1495.22 1990.6C1779.52 2173.32 1962.5 2214.51 2385.59 2425.52C3053.45 2758.57 3629.12 3012.74 4114.98 2786.23C4505.04 2604.38 4677.82 2353.16 5012.21 1796.54C5251.37 1398.46 5613.14 804.473 6294.12 103.686" stroke="#3056D3" stroke-miterlimit="10"/>
<path d="M20.0215 1804.97C710.529 1649.5 1199.3 1853.31 1465.94 2003.97C1757.87 2168.94 1956.65 2200.45 2399.31 2404.63C3075.05 2716.34 3601.94 2957.59 4078.46 2753.95C4485.51 2579.98 4682.92 2331.83 5043.42 1776.8C5294.25 1390.62 5666.62 809.116 6333.71 115.182" stroke="#3056D3" stroke-miterlimit="10"/>
<path d="M21.9229 1928.63C686.352 1719.27 1177.37 1890.68 1436.64 2017.28C1737.04 2163.98 1950.67 2186.81 2413 2383.71C3096.38 2674.72 3575.24 2903.36 4041.93 2721.6C4466.36 2556.31 4687.49 2310.1 5074.62 1757.03C5336.77 1382.48 5720.1 813.691 6373.27 126.576" stroke="#3056D3" stroke-miterlimit="10"/>
<path d="M23.8232 2052.3C662.26 1789.05 1156.19 1927.09 1407.34 2030.61C1716.99 2158.25 1944.39 2173.63 2426.7 2362.79C3117.54 2633.74 3548.89 2850.09 4005.41 2689.25C4447.47 2533.5 4691.57 2287.98 5105.82 1737.24C5378.97 1374.08 5773.57 818.284 6412.85 137.988" stroke="#3056D3" stroke-miterlimit="10"/>
<path d="M25.7236 2175.96C638.185 1858.84 1135.64 1962.44 1378.04 2043.93C1697.64 2151.37 1938.09 2160.95 2440.36 2341.85C3138.54 2593.32 3522.74 2797.62 3968.85 2656.92C4428.95 2511.71 4695.13 2265.39 5136.99 1717.45C5420.92 1365.4 5827.05 822.824 6452.41 149.451" stroke="#3056D3" stroke-miterlimit="10"/>
<path d="M27.625 2299.62C614.094 1928.61 1115.51 1996.64 1348.67 2057.24C1678.74 2143.01 1931.64 2148.75 2454.03 2320.93C3159.53 2553.46 3496.7 2746.17 3932.28 2624.57C4410.58 2491.04 4698.28 2242.29 5168.15 1697.61C5462.55 1356.37 5880.47 827.399 6491.92 160.76" stroke="#3056D3" stroke-miterlimit="10"/>
<path d="M29.5254 2423.29C590.087 1998.4 1095.55 2029.67 1319.44 2070.55C1660.24 2132.78 1925.29 2137.05 2467.79 2299.99C3180.57 2514.17 3470.75 2695.43 3895.82 2592.24C4392.45 2471.63 4701.12 2218.71 5199.42 1677.89C5504.17 1347.13 5934.01 832.041 6531.55 172.238" stroke="#3056D3" stroke-miterlimit="10"/>
<path d="M31.5137 2546.95C565.997 2068.19 1077.9 2123.53 1290.22 2083.88C1637.52 2019.01 1918.95 2125.84 2481.58 2279.07C3201.73 2475.24 3444.64 2645.45 3859.29 2559.89C4374.33 2453.65 4703.58 2194.43 5230.62 1658.1C5545.57 1337.59 5987.49 836.634 6571.13 183.719" stroke="#3056D3" stroke-miterlimit="10"/>
<path d="M33.334 2670.61C541.842 2137.97 1059.84 2143.58 1260.84 2097.2C1613.14 2015.91 1912.44 2115.1 2495.19 2258.15C3222.96 2436.86 3418.22 2596.21 3822.76 2527.54C4356.15 2437.1 4705.74 2169.64 5261.83 1638.27C5586.9 1327.68 6040.97 841.174 6610.7 195.027" stroke="#3056D3" stroke-miterlimit="10"/>
<path d="M35.2354 2794.28C517.751 2207.74 1039.42 2161.65 1231.54 2110.51C1590.18 2015.05 1906.05 2104.84 2508.9 2237.3C3244.31 2398.81 3391.48 2547.53 3786.23 2495.29C4337.83 2422.28 4707.66 2144.31 5293.03 1618.6C5628.16 1317.64 6094.46 845.852 6650.28 206.559" stroke="#3056D3" stroke-miterlimit="10"/>
<path d="M37.1357 2917.94C493.659 2277.53 1010.44 2152.04 1202.26 2123.82C1580.09 2068.36 1899.76 2095 2522.6 2216.35C3265.88 2361.08 3364.27 2499.35 3749.72 2462.91C4319.22 2409 4709.37 2118.17 5324.26 1598.73C5669.45 1307.1 6147.97 850.393 6689.86 217.885" stroke="#3056D3" stroke-miterlimit="10"/>
<path d="M39.0361 3041.6C469.567 2347.32 986.556 2181.14 1172.94 2137.15C1556.15 2046.74 1893.5 2085.61 2536.27 2195.41C3287.59 2323.69 3336.44 2451.7 3713.17 2430.56C4300.2 2397.63 4710.94 2091.64 5355.43 1578.99C5710.69 1296.4 6201.41 855.019 6729.42 229.348" stroke="#3056D3" stroke-miterlimit="10"/>
<path d="M40.9375 3165.27C445.493 2417.11 961.043 2210.26 1143.64 2150.47C1530.02 2023.88 1887.37 2076.63 2549.98 2174.45C3309.56 2286.58 3307.96 2404.43 3676.66 2398.19C4280.64 2387.91 4712.4 2064.4 5386.65 1559.18C5752 1285.45 6254.89 859.56 6769 240.725" stroke="#3056D3" stroke-miterlimit="10"/>
</svg>
