<svg xmlns="http://www.w3.org/2000/svg" version="1.1" xmlns:xlink="http://www.w3.org/1999/xlink" xmlns:svgjs="http://svgjs.dev/svgjs" width="1440" height="560" preserveAspectRatio="none" viewBox="0 0 1440 560"><g mask="url(&quot;#SvgjsMask1001&quot;)" fill="none"><rect width="1440" height="560" x="0" y="0" fill="rgba(33, 43, 54, 1)"></rect><path d="M0 29.7C39.47 29.7 65.13 84.7 130 140C135.13 144.37 133.45 147.96 140 149.03C208.45 160.17 210.16 155.46 280 164.42C350.16 173.42 356.59 193.45 420 184.94C447.51 181.24 461.84 164.6 461.84 140C461.84 107.79 452.01 91.86 420 71.32C361.09 33.52 348.41 50.71 280 23.33C259.32 15.05 241.82 6.29 241.82 0C241.82 -5.37 260.91 0 280 0C350 0 350 0 420 0C487.5 0 487.73 -1.09 555 0C557.73 0.04 557.53 1.07 560 2.26C630.03 36.07 628.42 65.46 700 70C768.42 74.33 767.92 31.73 840 20C907.92 8.94 911.21 14.05 980 24.42C1051.21 35.16 1052.89 35.86 1120 62.22C1192.89 90.85 1187.05 125.19 1260 134.4C1327.05 142.87 1331.78 121.16 1400 97.58C1471.78 72.77 1498.14 24.93 1540 37.61C1568.14 46.14 1540 88.81 1540 140C1540 210 1540 210 1540 280C1540 350 1540 350 1540 420C1540 490 1575 525 1540 560C1505 595 1470 560 1400 560C1330 560 1330 560 1260 560C1190 560 1190 560 1120 560C1065.75 560 1061.99 569.99 1011.5 560C991.99 556.14 997.76 532.31 980 532.31C952.01 532.31 951.67 553.74 920 560C881.67 567.58 880 560 840 560C770 560 770 560 700 560C630 560 630 560 560 560C501.39 560 497.4 569.32 442.79 560C427.4 557.37 430.83 536.1 420 536.1C410.01 536.1 415.21 557.6 401.15 560C345.21 569.55 340.58 560 280 560C224.74 560 190.71 590.8 169.47 560C142.43 520.8 194.47 479.41 183.45 420C179.74 400.01 161.06 401.19 140 401.19C123.97 401.19 111.76 403.76 109.27 420C99.58 483.17 145.58 521.65 115.65 560C90.95 591.65 26.16 591.67 0 560C-31.67 521.67 0 490 0 420C0 350 0 350 0 280C0 210 0 210 0 140C0 84.85 -25.53 29.7 0 29.7" stroke="rgba(51, 121, 194, 0.58)" stroke-width="2"></path><path d="M1260 145.83C1207.13 151.32 1175.26 215.14 1175.26 280C1175.26 335.89 1206.89 376.3 1260 387.33C1319.26 399.64 1340.32 367.04 1400 326.67C1419.66 313.37 1418.67 301.95 1418.67 280C1418.67 266.95 1411.37 266.29 1400 256.67C1332.04 199.2 1319.5 139.65 1260 145.83" stroke="rgba(51, 121, 194, 0.58)" stroke-width="2"></path><path d="M0 82.73C20.49 82.73 34.22 110.82 67.5 140C104.22 172.2 96.33 192.1 140 205.48C202.58 224.66 210.47 199.49 280 205.12C350.47 210.83 359.94 245.76 420 228.15C470.98 213.2 463.79 186.33 502.07 140C533.79 101.61 524.61 58.71 560 58.71C608.36 58.71 669.57 96.19 669.57 140C669.57 188.26 615.25 191.94 560 242.86C539.3 261.94 517.67 261.84 517.67 280C517.67 297.58 534.61 307.03 560 314.34C625.77 333.28 643.43 344.83 700 332.5C722.18 327.66 699.16 299.51 717.5 280C769.16 225.06 780.95 234.2 840 183.61C862.66 164.2 858.17 159.26 880.92 140C928.17 100.01 926.46 68.02 980 65.12C1046 61.54 1050.39 95.28 1120 127.04C1132.46 132.72 1144.14 129.78 1144.14 140C1144.14 159.6 1129.32 162.2 1120 186.67C1102.66 232.2 1094.02 232.16 1090.83 280C1086.24 348.82 1092.05 352.26 1104.44 420C1106.64 432.03 1112.3 429.7 1120 439.53C1167.17 499.7 1214.18 522.72 1214.18 560C1214.18 582.96 1167.09 560 1120 560C1087.63 560 1082.73 572.98 1055.25 560C1012.73 539.91 1023.96 499.57 980 493.85C916.33 485.57 909.99 532.04 840 532C769.99 531.96 762.26 485.09 700 493.68C660.76 499.09 675.01 542 637 560C605.01 575.16 598.5 560 560 560C542.1 560 537.61 570.47 524.19 560C467.61 515.84 479.57 493.68 420 450.73C382.48 423.68 375.3 434.39 330 420C305.3 412.16 304.25 415.34 280 406.27C209.25 379.82 207.4 345.35 140 348.96C79.35 352.21 42.02 369.07 23.9 420C4.48 474.59 73.2 511.56 64.93 560C61.25 581.56 10.29 582.18 0 560C-22.18 512.18 0 490 0 420C0 350 0 350 0 280C0 210 0 210 0 140C0 111.37 -13.26 82.73 0 82.73" stroke="rgba(51, 121, 194, 0.58)" stroke-width="2"></path><path d="M420 5.28C414.25 5.28 408.33 1.38 408.33 0C408.33 -1.26 414.16 0 420 0C425 0 430 -1.24 430 0C430 1.4 425.08 5.28 420 5.28" stroke="rgba(51, 121, 194, 0.58)" stroke-width="2"></path><path d="M1453.85 140C1453.85 108.45 1511.34 89.85 1540 89.85C1554.42 89.85 1540 114.93 1540 140C1540 186.67 1558.25 233.33 1540 233.33C1515.17 233.33 1453.85 180.19 1453.85 140" stroke="rgba(51, 121, 194, 0.58)" stroke-width="2"></path><path d="M1498 420C1525.66 397.39 1528.46 360 1540 360C1549.46 360 1540 390 1540 420C1540 490 1575 525 1540 560C1505 595 1470 560 1400 560C1354.7 560 1309.41 578.01 1309.41 560C1309.41 535.23 1350.36 511.29 1400 474.44C1444.66 441.29 1455.66 454.61 1498 420" stroke="rgba(51, 121, 194, 0.58)" stroke-width="2"></path><path d="M230.88 560C230.88 520.05 254.46 448 280 448C305.95 448 333.85 520.93 333.85 560C333.85 576.93 306.92 560 280 560C255.44 560 230.88 576.05 230.88 560" stroke="rgba(51, 121, 194, 0.58)" stroke-width="2"></path><path d="M0 135.76C1.52 135.76 2.57 137.81 5 140C72.57 200.9 62.52 232.13 140 261.94C200.02 285.03 210.34 243.47 280 245.81C350.34 248.18 350.82 256.23 420 271.36C428.96 273.32 436.28 273.03 436.28 280C436.28 294.02 436.18 307.36 420 313.33C358.04 336.19 349.09 341.75 280 337.65C209.09 333.44 209.75 295.82 140 296.72C69.75 297.62 49.4 347.15 0 341.25C-20.6 338.79 0 310.63 0 280C0 210 0 210 0 140C0 137.88 -0.98 135.76 0 135.76" stroke="rgba(51, 121, 194, 0.58)" stroke-width="2"></path><path d="M542.3 140C542.3 127.11 549.19 115.16 560 115.16C574.78 115.16 593.48 126.61 593.48 140C593.48 154.75 574.33 171.43 560 171.43C548.74 171.43 542.3 155.24 542.3 140" stroke="rgba(51, 121, 194, 0.58)" stroke-width="2"></path><path d="M934.77 140C955.1 120.37 955.65 105.81 980 105.81C1014.12 105.81 1044.97 109.04 1051.71 140C1063.93 196.13 1020.96 209.43 1017.92 280C1014.92 349.43 1052.36 361.12 1039.63 420C1033.4 448.81 1010.57 455.38 980 455.38C944.16 455.38 937.83 444.97 906.82 420C867.83 388.6 872.67 381.93 840 342.63C814.47 311.93 790.42 308.4 790.42 280C790.42 257.57 817.41 262.89 840 240.98C889.58 192.89 885.1 187.95 934.77 140" stroke="rgba(51, 121, 194, 0.58)" stroke-width="2"></path><path d="M492.26 420C492.26 395.25 525.99 380.38 560 380.38C594.86 380.38 630 395.13 630 420C630 451.14 594.7 492.41 560 492.41C525.83 492.41 492.26 451.27 492.26 420" stroke="rgba(51, 121, 194, 0.58)" stroke-width="2"></path><path d="M0 520.8C3.66 520.8 14.2 545.38 14.2 560C14.2 564.98 1.89 565.21 0 560C-5.21 545.61 -3.44 520.8 0 520.8" stroke="rgba(51, 121, 194, 0.58)" stroke-width="2"></path><path d="M1099 560C1099 546.74 1107.83 520.93 1120 520.93C1133.61 520.93 1150.55 547.91 1150.55 560C1150.55 567.45 1135.28 560 1120 560C1109.5 560 1099 566.28 1099 560" stroke="rgba(51, 121, 194, 0.58)" stroke-width="2"></path><path d="M1378.04 560C1378.04 554 1386.25 545.01 1400 539.26C1467.23 511.14 1492.01 485.15 1540 492.26C1562.01 495.52 1562.83 548.96 1540 560C1492.83 582.83 1470 560 1400 560C1389.02 560 1378.04 564.37 1378.04 560" stroke="rgba(51, 121, 194, 0.58)" stroke-width="2"></path></g><defs><mask id="SvgjsMask1001"><rect width="1440" height="560" fill="#ffffff"></rect></mask></defs></svg>