<svg width="6514" height="2569" viewBox="0 0 6514 2569" fill="none" xmlns="http://www.w3.org/2000/svg">
<path d="M558.758 2494.18C1666.37 1991.51 2044.34 1437.17 2181.32 1016.63C2334.18 547.293 2255.35 34.3272 2420.36 2.47155C2526.02 -17.9338 2656.03 173.613 2898.43 593.508C3633.48 1866.78 3650.12 2204.92 3963.29 2292.68C4402 2415.71 4672.45 1836.92 5346.8 1849.39C5842.08 1858.58 6242.87 2180.84 6513 2467.3" stroke="white" stroke-miterlimit="10"/>
<path d="M532.162 2443.65C1608.59 1951.8 2008.27 1412.97 2156.11 1018.84C2321.32 578.384 2243.3 91.9159 2406.59 68.9082C2511.58 54.1055 2639.15 242.377 2873.28 647.882C3584.85 1880.03 3606.92 2222.37 3917.68 2305.8C4358.93 2422.6 4617.59 1801.94 5299.08 1793.49C5313.94 1793.31 5328.57 1793.31 5343.21 1793.67C5826.75 1806.15 6233.25 2128.56 6509.15 2413.26" stroke="white" stroke-miterlimit="10"/>
<path d="M505.65 2393.11C1550.8 1912.14 1971.88 1389.73 2130.97 1021.07C2308.28 610.148 2231.36 149.565 2392.89 135.374C2497.23 126.19 2622.37 311.201 2848.19 702.301C3536.11 1893.25 3563.49 2240.91 3872.18 2318.92C4315.58 2430.97 4562.98 1766.66 5251.49 1737.57C5266.6 1736.93 5281.65 1736.29 5296.71 1736.36C5788.23 1738.87 6215.86 2067.95 6505.39 2359.21" stroke="white" stroke-miterlimit="10"/>
<path d="M479.08 2342.58C1493.11 1872.34 1934.93 1367.61 2105.78 1023.31C2294.7 642.585 2219.45 207.261 2379.13 201.857C2482.88 198.336 2605.45 380.01 2823.06 756.705C3487.42 1906.6 3520.21 2258.83 3826.64 2332.04C4272.4 2438.52 4508.4 1731.11 5203.85 1681.65C5219.29 1680.55 5234.71 1679.49 5250.08 1679.03C5749.56 1664.25 6198.36 2007.31 6501.51 2305.13" stroke="white" stroke-miterlimit="10"/>
<path d="M452.518 2292.05C1435.37 1832.68 1897.24 1346.67 2080.59 1025.54C2280.36 675.68 2207.62 265.017 2365.4 268.338C2468.57 270.497 2588.59 448.833 2797.95 811.124C3438.73 1919.89 3476.95 2276.71 3781.11 2345.14C4229.36 2445.99 4453.91 1695.31 5156.22 1625.67C5171.99 1624.14 5187.77 1622.61 5203.61 1621.66C5711.01 1593.46 6180.97 1946.65 6497.79 2251.07" stroke="white" stroke-miterlimit="10"/>
<path d="M425.955 2241.52C1377.63 1793 1858.59 1327 2055.45 1027.79C2264.92 709.388 2195.78 322.819 2351.7 334.805C2454.32 342.704 2571.75 517.642 2772.86 865.544C3390.1 1933.17 3433.77 2294.53 3735.61 2358.26C4186.32 2453.4 4399.46 1659.26 5108.63 1569.8C5124.74 1567.76 5140.86 1565.69 5157.1 1564.38C5672.41 1522.89 6163.64 1886.06 6494.03 2197.07" stroke="white" stroke-miterlimit="10"/>
<path d="M399.41 2190.99C1319.88 1753.28 1818.69 1308.58 2030.24 1030.03C2247.89 743.434 2184.04 380.699 2337.93 401.288C2440.04 414.942 2554.87 586.513 2747.7 919.949C3341.38 1946.45 3390.55 2312.31 3690.05 2371.36C4143.32 2460.75 4344.96 1622.99 5060.97 1513.88C5077.48 1511.37 5093.89 1508.8 5110.5 1507.07C5633.68 1452.39 6146.16 1825.47 6490.17 2143.02" stroke="white" stroke-miterlimit="10"/>
<path d="M372.848 2140.46C1262.14 1713.57 1728.28 1246.48 2005.07 1032.26C2172.7 742.836 2172.29 438.654 2324.2 467.754C2425.8 487.226 2538.01 655.275 2722.59 974.444C3292.7 1959.81 3347.36 2330.09 3644.51 2384.56C4100.33 2468.09 4290.48 1586.59 5013.32 1458.03C5030.13 1455.05 5046.95 1451.99 5063.97 1449.81C5595.07 1382.08 6128.84 1764.88 6486.42 2089.04" stroke="white" stroke-miterlimit="10"/>
<path d="M346.281 2089.93C1204.4 1673.86 1683.14 1219.22 1979.89 1034.5C2149.64 770.774 2160.53 496.687 2310.46 534.237C2411.56 559.556 2521.14 724.054 2697.46 1028.79C3243.92 1973.02 3304.2 2347.68 3599 2397.6C4057.37 2475.21 4235.98 1549.84 4965.69 1402.04C4982.83 1398.56 5000 1395.01 5017.43 1392.41C5556.44 1311.72 6111.36 1704.19 6482.62 2034.91" stroke="white" stroke-miterlimit="10"/>
<path d="M319.719 2039.4C1146.65 1634.15 1637.99 1191.98 1954.69 1036.73C2126.56 798.694 2148.78 554.778 2296.72 600.702C2397.32 631.915 2504.28 792.877 2672.33 1083.19C3195.32 1986.35 3261.06 2365.27 3553.46 2410.69C4014.44 2482.31 4181.44 1512.97 4918.06 1346.09C4935.53 1342.14 4953.06 1338.11 4970.89 1335.07C5517.8 1241.5 6093.94 1643.53 6478.83 1980.84" stroke="white" stroke-miterlimit="10"/>
<path d="M293.168 1988.87C1088.93 1594.44 1592.85 1164.74 1929.51 1038.98C2103.49 826.647 2137.01 612.965 2282.97 667.185C2383.05 704.353 2487.42 861.718 2647.22 1137.57C3146.63 1999.55 3217.94 2382.78 3507.93 2423.78C3971.52 2489.31 4126.85 1475.93 4870.43 1290.14C4888.24 1285.68 4906.12 1281.21 4924.33 1277.71C5479.2 1171.36 6076.52 1582.89 6475.03 1926.76" stroke="white" stroke-miterlimit="10"/>
<path d="M266.602 1938.32C1031.14 1554.75 1547.74 1137.49 1904.35 1041.28C2080.44 854.645 2125.22 671.242 2269.21 733.729C2368.75 776.897 2470.55 930.588 2622.07 1192.09C3097.93 2012.94 3174.79 2400.37 3462.41 2436.99C3928.64 2496.37 4072.22 1438.92 4822.8 1234.33C4840.96 1229.38 4859.12 1224.44 4877.79 1220.55C5440.62 1101.48 6059.1 1522.4 6471.23 1872.86" stroke="white" stroke-miterlimit="10"/>
<path d="M240.039 1887.79C973.41 1515.04 1502.54 1110.24 1879.16 1043.45C2057.36 882.52 2113.35 729.472 2255.49 800.133C2354.45 849.333 2453.69 999.35 2596.96 1246.45C3049.32 2026.17 3131.71 2417.75 3416.86 2450.04C3885.73 2503.15 4017.49 1401.53 4775.17 1178.34C4793.64 1172.9 4812.23 1167.51 4831.3 1163.11C5402.12 1031.47 6041.73 1461.62 6467.48 1818.72" stroke="white" stroke-miterlimit="10"/>
<path d="M213.527 1837.26C915.663 1475.33 1457.39 1083.01 1853.98 1045.72C2034.28 910.488 2101.45 787.796 2241.76 866.616C2340.12 921.877 2436.84 1068.16 2571.85 1300.85C3000.59 2039.46 3088.6 2435.17 3371.33 2463.16C3842.87 2509.91 3962.72 1364.06 4727.52 1122.43C4746.34 1116.47 4765.3 1110.62 4784.71 1105.79C5363.54 961.525 6024.27 1401.04 6463.73 1764.67" stroke="white" stroke-miterlimit="10"/>
<path d="M186.932 1786.73C857.913 1435.62 1412.26 1055.76 1828.81 1047.94C2011.22 938.41 2089.51 846.134 2228.03 933.129C2325.75 994.467 2419.98 1137 2546.66 1355.3C2951.84 2052.78 3045.43 2452.48 3325.73 2476.3C3799.93 2516.6 3907.81 1326.68 4679.83 1066.52C4698.98 1060.08 4718.3 1053.79 4738.09 1048.49C5324.99 891.705 6006.78 1340.46 6459.79 1710.65" stroke="white" stroke-miterlimit="10"/>
<path d="M160.369 1736.19C800.164 1395.91 1367.1 1028.51 1803.62 1050.17C1988.16 966.346 2077.51 904.502 2214.29 999.564C2311.33 1067.01 2403.11 1205.79 2521.62 1409.69C2903.22 2066.02 3002.39 2469.71 3280.28 2489.39C3757.14 2523.14 3852.96 1289 4632.27 1010.65C4651.75 1003.7 4671.43 996.961 4691.7 991.221C5286.59 821.885 5989.43 1279.79 6456.06 1656.5" stroke="white" stroke-miterlimit="10"/>
<path d="M133.803 1685.66C742.428 1356.22 1321.95 1001.32 1778.44 1052.41C1964.99 994.237 2065.45 962.902 2200.55 1066.05C2296.87 1139.6 2386.25 1274.6 2496.49 1464.05C2854.53 2079.24 2959.28 2486.88 3234.74 2502.43C3714.26 2529.52 3797.97 1251.26 4584.63 954.589C4604.44 947.119 4624.49 939.955 4645.07 933.755C5248.15 752.143 5972.06 1219.17 6452.26 1602.51" stroke="white" stroke-miterlimit="10"/>
<path d="M107.24 1635.07C684.679 1316.45 1276.79 973.97 1753.24 1054.6C1942 1022.16 2053.35 1021.22 2186.79 1132.45C2282.38 1212.05 2369.38 1343.35 2471.34 1518.45C2805.83 2092.5 2916.16 2504.04 3189.2 2515.55C3671.39 2535.94 3742.91 1213.55 4537 898.762C4557.13 890.771 4577.55 883.179 4598.52 876.52C5209.77 682.462 5954.6 1158.57 6448.47 1548.53" stroke="white" stroke-miterlimit="10"/>
<path d="M80.6914 1584.55C626.927 1276.87 1225.38 1138.99 1728.08 1056.89C1916.19 1026.17 2041.24 1079.69 2173.06 1198.99C2267.88 1284.72 2352.54 1412.23 2446.25 1572.93C2757.16 2105.88 2873.05 2521.21 3143.68 2528.73C3628.5 2542.18 3687.78 1175.71 4489.37 842.796C4509.81 834.315 4530.65 826.279 4551.98 819.161C5171.4 612.765 5937.13 1097.92 6444.68 1494.41" stroke="white" stroke-miterlimit="10"/>
<path d="M54.1289 1534.04C569.227 1237.07 1175.13 962.626 1702.91 1059.1C1893.29 1093.91 2029.05 1138.04 2159.33 1265.45C2253.33 1357.29 2335.67 1481.01 2421.12 1627.32C2708.49 2119.13 2829.91 2538.23 3098.15 2541.8C3585.57 2548.29 3632.58 1137.79 4441.73 786.846C4462.51 777.845 4483.71 769.426 4505.44 761.818C5133.53 544.278 5919.76 1037.28 6440.94 1440.35" stroke="white" stroke-miterlimit="10"/>
<path d="M27.5625 1483.52C511.441 1197.37 1134.05 913.701 1677.73 1061.35C1870.57 1113.73 2016.83 1196.44 2145.59 1331.93C2238.75 1429.9 2318.81 1549.85 2395.99 1681.74C2659.8 2132.44 2786.77 2556.33 3052.61 2554.93C3542.63 2552.36 3576.72 1098.79 4394.09 730.941C4415.17 721.389 4436.77 712.577 4458.88 704.504C5095.03 474.106 5902.34 976.647 6437.09 1386.29" stroke="white" stroke-miterlimit="10"/>
<path d="M1 1433.01C453.692 1157.69 1096.19 865.084 1652.53 1063.61C2491.22 1362.94 2563.78 2575.09 3007.09 2568.05C3512.45 2560.03 3522.79 983.092 4412.34 647.192C5056.51 403.95 5884.99 916.028 6433.29 1332.26" stroke="white" stroke-miterlimit="10"/>
</svg>
